<svg xmlns="http://www.w3.org/2000/svg" xmlns:xlink="http://www.w3.org/1999/xlink" viewBox="0 0 1080 1080"><defs><style>.cls-1{fill:#1482cc;}.cls-2{fill:url(#Gradiente_sem_nome_29);}.cls-3{fill:url(#Gradiente_sem_nome_29-2);}.cls-4{fill:url(#Gradiente_sem_nome_29-3);}</style><linearGradient id="Gradiente_sem_nome_29" x1="212.35" y1="562.99" x2="513" y2="470.2" gradientUnits="userSpaceOnUse"><stop offset="0" stop-color="#0fd"/><stop offset="1" stop-color="#1482cc"/></linearGradient><linearGradient id="Gradiente_sem_nome_29-2" x1="225.36" y1="593.84" x2="526.01" y2="501.04" xlink:href="#Gradiente_sem_nome_29"/><linearGradient id="Gradiente_sem_nome_29-3" x1="235.24" y1="623.74" x2="535.89" y2="530.95" xlink:href="#Gradiente_sem_nome_29"/></defs><g id="Camada_3" data-name="Camada 3"><polygon class="cls-1" points="605.42 570.02 595.85 588.95 594.66 591.3 593.45 588.95 583.72 570.02 579.25 570.02 592.57 596.04 596.62 596.04 609.88 570.02 605.42 570.02"/><path class="cls-1" d="M636.3,574h19c.65,0,2.79.26,2.79,3.53v5.36H640.44v4h17.65V596h4v-18.5a7.9,7.9,0,0,0-1.94-5.37A6.11,6.11,0,0,0,655.3,570h-19a6,6,0,0,0-4.81,2.15,7.85,7.85,0,0,0-1.94,5.37V596h4V577.55C633.56,574.29,635.66,574,636.3,574Z"/><polygon class="cls-1" points="684.94 570.02 680.93 570.02 680.93 596.04 707 596.04 707 592.03 686.28 592.03 684.94 592.03 684.94 590.68 684.94 570.02"/><polygon class="cls-1" points="730.34 570.02 726.33 570.02 726.33 596.04 752.41 596.04 752.41 592.03 731.69 592.03 730.34 592.03 730.34 590.68 730.34 570.02"/><polygon class="cls-1" points="775.24 575.38 775.24 574.03 776.59 574.03 799.21 574.03 799.21 570.02 771.23 570.02 771.23 596.04 799.15 596.04 799.15 592.03 776.59 592.03 775.24 592.03 775.24 590.68 775.24 586.38 775.24 585.04 776.59 585.04 797.64 585.04 797.64 581.03 776.59 581.03 775.24 581.03 775.24 579.68 775.24 575.38"/><path class="cls-1" d="M850.52,577.56V570h-4v7.54c0,3.22-2.1,3.47-2.74,3.47h-19c-.64,0-2.74-.25-2.74-3.47V570h-4v7.54a7.52,7.52,0,0,0,1.9,5.25,6,6,0,0,0,4.86,2.23h7.54v11h4V585h7.43a6.22,6.22,0,0,0,4.91-2.22A7.69,7.69,0,0,0,850.52,577.56Z"/><path class="cls-2" d="M356.17,539.24q13.74,8.49,13.74,25.9a30.19,30.19,0,0,1-8.07,21.32Q353.11,596,338.29,596H229.48V484H336.33q14.82,0,23.55,9.58,7.85,8.7,7.85,21.32Q367.73,530.53,356.17,539.24Zm-19.84-12.32q5.67,0,5.67-8.4c0-5.59-1.89-8.4-5.67-8.4H255.64v16.8Zm1.76,43q5.64,0,5.65-8.4t-5.65-8.4H255.64v16.8Z"/><path class="cls-3" d="M412.87,596H386.7V484h26.17Z"/><path class="cls-4" d="M553.08,596H466.29a36.36,36.36,0,0,1-26-10.12q-10.68-10.11-10.68-25.35V519.43q0-15.22,10.68-25.35a36.36,36.36,0,0,1,26-10.12h86.79v26.16H466.29q-10.46,0-10.46,9.35v41.06q0,9.35,10.46,9.35h60.63v-16.8H484l16.79-26.16h52.33Z"/></g></svg>