<svg width="800" height="200" xmlns="http://www.w3.org/2000/svg" xmlns:xlink="http://www.w3.org/1999/xlink">
 <defs>
  <linearGradient gradientTransform="matrix(1.2454553842544556,0,0,1.2454553842544556,-272.54791259765625,-572.5400390625)" gradientUnits="userSpaceOnUse" y2="470.2" x2="513" y1="562.99" x1="212.35" id="svg_4">
   <stop stop-color="#0fd" offset="0"/>
   <stop stop-color="#1482cc" offset="1"/>
  </linearGradient>
  <linearGradient xlink:href="#svg_4" xlink:href="#svg_4" y2="501.04" x2="526.01" y1="593.84" x1="225.36" id="svg_3"/>
  <linearGradient href="#svg_4" xlink:href="#svg_4" y2="530.95" x2="535.89" y1="623.74" x1="235.24" id="svg_2"/>
 </defs>
 <g>
  <title>Layer 1</title>
  <g stroke="null">

   <g stroke="null" data-name="Camada 3" id="svg_1">
    <polygon stroke="null" fill="#1482cc" points="481.4755554199219,137.3944091796875 469.55657958984375,160.97088623046875 468.0744934082031,163.89764404296875 466.5675048828125,160.97088623046875 454.44921875,137.3944091796875 448.882080078125,137.3944091796875 465.47149658203125,169.80108642578125 470.515625,169.80108642578125 487.0303955078125,137.3944091796875 481.4755554199219,137.3944091796875 " class="cls-1"/>
    <path stroke="null" fill="#1482cc" d="m519.93528,142.35125l23.66365,0c0.80955,0 3.47482,0.32382 3.47482,4.39646l0,6.67564l-21.98229,0l0,4.98182l21.98229,0l0,11.3461l4.98182,0l0,-23.04092a9.8391,9.8391 0 0 0 -2.41618,-6.68809a7.60973,7.60973 0 0 0 -6.04046,-2.65282l-23.66365,0a7.47273,7.47273 0 0 0 -5.99064,2.67773a9.77682,9.77682 0 0 0 -2.41618,6.68809l0,23.01601l4.98182,0l0,-22.97865c0.01245,-4.06018 2.62791,-4.42137 3.425,-4.42137z" class="cls-1"/>
    <polygon stroke="null" fill="#1482cc" points="580.51416015625,137.3944091796875 575.5198974609375,137.3944091796875 575.5198974609375,169.80108642578125 607.9888916015625,169.80108642578125 607.9888916015625,164.806884765625 582.18310546875,164.806884765625 580.51416015625,164.806884765625 580.51416015625,163.12539672851562 580.51416015625,137.3944091796875 " class="cls-1"/>
    <polygon stroke="null" fill="#1482cc" points="637.057861328125,137.3944091796875 632.0635986328125,137.3944091796875 632.0635986328125,169.80108642578125 664.5449829101562,169.80108642578125 664.5449829101562,164.806884765625 638.7392578125,164.806884765625 637.057861328125,164.806884765625 637.057861328125,163.12539672851562 637.057861328125,137.3944091796875 " class="cls-1"/>
    <polygon stroke="null" fill="#1482cc" points="692.978759765625,144.070068359375 692.978759765625,142.388671875 694.6602172851562,142.388671875 722.8323974609375,142.388671875 722.8323974609375,137.3944091796875 687.9844970703125,137.3944091796875 687.9844970703125,169.80108642578125 722.7576904296875,169.80108642578125 722.7576904296875,164.806884765625 694.6602172851562,164.806884765625 692.978759765625,164.806884765625 692.978759765625,163.12539672851562 692.978759765625,157.76998901367188 692.978759765625,156.10107421875 694.6602172851562,156.10107421875 720.8770751953125,156.10107421875 720.8770751953125,151.10687255859375 694.6602172851562,151.10687255859375 692.978759765625,151.10687255859375 692.978759765625,149.42544555664062 692.978759765625,144.070068359375 " class="cls-1"/>
    <path stroke="null" fill="#1482cc" d="m786.73671,146.78507l0,-9.41564l-4.98182,0l0,9.39073c0,4.01037 -2.61546,4.32173 -3.41255,4.32173l-23.66365,0c-0.79709,0 -3.41255,-0.31136 -3.41255,-4.32173l0,-9.39073l-4.98182,0l0,9.39073a9.36582,9.36582 0 0 0 2.36637,6.53864a7.47273,7.47273 0 0 0 6.05291,2.77737l9.39073,0l0,13.70001l4.98182,0l0,-13.72492l9.25373,0a7.74673,7.74673 0 0 0 6.11519,-2.76491a9.57755,9.57755 0 0 0 2.29164,-6.50128z" class="cls-1"/>
    <path stroke="null" fill="url(#svg_4)" d="m171.04589,99.05922q17.11256,10.57392 17.11256,32.25729a37.6003,37.6003 0 0 1 -10.05082,26.55311q-10.87282,11.88164 -29.33047,11.88164l-135.51799,0l0,-139.49099l133.0769,0q18.45765,0 29.33047,11.93146q9.77682,10.83546 9.77682,26.55311q0,19.46647 -14.39746,30.31438zm-24.70983,-15.34401q7.06173,0 7.06173,-10.46182c0,-6.9621 -2.35391,-10.46182 -7.06173,-10.46182l-100.49579,0l0,20.92365l100.49579,0zm2.192,53.55458q7.02437,0 7.03682,-10.46182t-7.03682,-10.46182l-102.68779,0l0,20.92365l102.68779,0z" class="cls-2"/>
    <path stroke="null" fill="url(#svg_3)" d="m241.6632,169.75126l-32.59357,0l0,-139.49099l32.59357,0l0,139.49099z" class="cls-3"/>
    <path stroke="null" fill="url(#svg_2)" d="m416.28849,169.75126l-108.09306,0a45.28475,45.28475 0 0 1 -32.38184,-12.60401q-13.30146,-12.59155 -13.30146,-31.57229l0,-51.18821q0,-18.95583 13.30146,-31.57229a45.28475,45.28475 0 0 1 32.38184,-12.60401l108.09306,0l0,32.58111l-108.09306,0q-13.02746,0 -13.02746,11.64501l0,51.13839q0,11.64501 13.02746,11.64501l75.51195,0l0,-20.92365l-53.45494,0l20.91119,-32.58111l65.17468,0l-0.04982,86.03605z" class="cls-4"/>
   </g>
  </g>
 </g>
</svg>